<mxfile host="65bd71144e">
    <diagram name="Page-1" id="yhz50j58DgAdwSL7MHUV">
        <mxGraphModel dx="671" dy="266" grid="1" gridSize="10" guides="1" tooltips="1" connect="1" arrows="1" fold="1" page="1" pageScale="1" pageWidth="827" pageHeight="1169" math="1" shadow="0">
            <root>
                <mxCell id="0"/>
                <mxCell id="1" parent="0"/>
                <mxCell id="mNl9BlflZ9imCKy_za09-18" value="" style="endArrow=none;html=1;rounded=0;" parent="1" edge="1">
                    <mxGeometry width="50" height="50" relative="1" as="geometry">
                        <mxPoint x="280" y="280" as="sourcePoint"/>
                        <mxPoint x="320" y="210" as="targetPoint"/>
                    </mxGeometry>
                </mxCell>
                <mxCell id="mNl9BlflZ9imCKy_za09-1" value="" style="endArrow=classic;html=1;rounded=0;" parent="1" edge="1">
                    <mxGeometry width="50" height="50" relative="1" as="geometry">
                        <mxPoint x="80" y="240" as="sourcePoint"/>
                        <mxPoint x="120" y="240" as="targetPoint"/>
                    </mxGeometry>
                </mxCell>
                <mxCell id="mNl9BlflZ9imCKy_za09-2" value="" style="whiteSpace=wrap;html=1;aspect=fixed;" parent="1" vertex="1">
                    <mxGeometry x="120" y="220" width="40" height="40" as="geometry"/>
                </mxCell>
                <mxCell id="mNl9BlflZ9imCKy_za09-3" value="" style="endArrow=none;html=1;rounded=0;" parent="1" edge="1">
                    <mxGeometry width="50" height="50" relative="1" as="geometry">
                        <mxPoint x="140" y="224.8" as="sourcePoint"/>
                        <mxPoint x="160" y="224.8" as="targetPoint"/>
                    </mxGeometry>
                </mxCell>
                <mxCell id="mNl9BlflZ9imCKy_za09-4" value="" style="endArrow=none;html=1;rounded=0;" parent="1" edge="1">
                    <mxGeometry width="50" height="50" relative="1" as="geometry">
                        <mxPoint x="140" y="254.8" as="sourcePoint"/>
                        <mxPoint x="140" y="224.8" as="targetPoint"/>
                    </mxGeometry>
                </mxCell>
                <mxCell id="mNl9BlflZ9imCKy_za09-5" value="" style="endArrow=none;html=1;rounded=0;" parent="1" edge="1">
                    <mxGeometry width="50" height="50" relative="1" as="geometry">
                        <mxPoint x="140" y="254.8" as="sourcePoint"/>
                        <mxPoint x="120" y="254.8" as="targetPoint"/>
                    </mxGeometry>
                </mxCell>
                <mxCell id="mNl9BlflZ9imCKy_za09-6" value="" style="endArrow=classic;html=1;rounded=0;exitX=1;exitY=0.5;exitDx=0;exitDy=0;" parent="1" source="mNl9BlflZ9imCKy_za09-2" edge="1">
                    <mxGeometry width="50" height="50" relative="1" as="geometry">
                        <mxPoint x="90" y="250" as="sourcePoint"/>
                        <mxPoint x="200" y="240" as="targetPoint"/>
                    </mxGeometry>
                </mxCell>
                <mxCell id="mNl9BlflZ9imCKy_za09-7" value="" style="ellipse;whiteSpace=wrap;html=1;aspect=fixed;" parent="1" vertex="1">
                    <mxGeometry x="200" y="219.5" width="40" height="40" as="geometry"/>
                </mxCell>
                <mxCell id="mNl9BlflZ9imCKy_za09-8" value="" style="endArrow=classic;html=1;rounded=0;" parent="1" edge="1">
                    <mxGeometry width="50" height="50" relative="1" as="geometry">
                        <mxPoint x="220" y="280" as="sourcePoint"/>
                        <mxPoint x="220" y="260" as="targetPoint"/>
                    </mxGeometry>
                </mxCell>
                <mxCell id="mNl9BlflZ9imCKy_za09-9" value="" style="endArrow=classic;html=1;rounded=0;" parent="1" edge="1">
                    <mxGeometry width="50" height="50" relative="1" as="geometry">
                        <mxPoint x="240" y="240" as="sourcePoint"/>
                        <mxPoint x="280" y="240" as="targetPoint"/>
                    </mxGeometry>
                </mxCell>
                <mxCell id="mNl9BlflZ9imCKy_za09-12" value="" style="endArrow=classic;html=1;rounded=0;exitX=1;exitY=0.5;exitDx=0;exitDy=0;" parent="1" edge="1">
                    <mxGeometry width="50" height="50" relative="1" as="geometry">
                        <mxPoint x="320" y="240" as="sourcePoint"/>
                        <mxPoint x="360" y="240" as="targetPoint"/>
                    </mxGeometry>
                </mxCell>
                <mxCell id="mNl9BlflZ9imCKy_za09-13" value="" style="triangle;whiteSpace=wrap;html=1;" parent="1" vertex="1">
                    <mxGeometry x="360" y="225" width="30" height="30" as="geometry"/>
                </mxCell>
                <mxCell id="mNl9BlflZ9imCKy_za09-14" value="-1" style="text;html=1;align=center;verticalAlign=middle;resizable=0;points=[];autosize=1;strokeColor=none;fillColor=none;" parent="1" vertex="1">
                    <mxGeometry x="354" y="224.5" width="30" height="30" as="geometry"/>
                </mxCell>
                <mxCell id="mNl9BlflZ9imCKy_za09-15" value="" style="endArrow=classic;html=1;rounded=0;" parent="1" edge="1">
                    <mxGeometry width="50" height="50" relative="1" as="geometry">
                        <mxPoint x="390" y="240" as="sourcePoint"/>
                        <mxPoint x="430" y="240" as="targetPoint"/>
                    </mxGeometry>
                </mxCell>
                <mxCell id="mNl9BlflZ9imCKy_za09-16" value="" style="endArrow=none;html=1;rounded=0;" parent="1" edge="1">
                    <mxGeometry width="50" height="50" relative="1" as="geometry">
                        <mxPoint x="340" y="210" as="sourcePoint"/>
                        <mxPoint x="320" y="210" as="targetPoint"/>
                    </mxGeometry>
                </mxCell>
                <mxCell id="mNl9BlflZ9imCKy_za09-17" value="" style="endArrow=none;html=1;rounded=0;" parent="1" edge="1">
                    <mxGeometry width="50" height="50" relative="1" as="geometry">
                        <mxPoint x="260" y="280" as="sourcePoint"/>
                        <mxPoint x="260" y="280" as="targetPoint"/>
                        <Array as="points">
                            <mxPoint x="260" y="280"/>
                        </Array>
                    </mxGeometry>
                </mxCell>
                <mxCell id="mNl9BlflZ9imCKy_za09-19" value="" style="whiteSpace=wrap;html=1;aspect=fixed;" parent="1" vertex="1">
                    <mxGeometry x="280" y="219.5" width="40" height="40" as="geometry"/>
                </mxCell>
                <mxCell id="mNl9BlflZ9imCKy_za09-20" value="PI" style="text;html=1;align=center;verticalAlign=middle;resizable=0;points=[];autosize=1;strokeColor=none;fillColor=none;" parent="1" vertex="1">
                    <mxGeometry x="285" y="224.5" width="30" height="30" as="geometry"/>
                </mxCell>
                <mxCell id="mNl9BlflZ9imCKy_za09-21" value="$$-I_{P_{MAX}}$$" style="text;html=1;align=center;verticalAlign=middle;resizable=0;points=[];autosize=1;strokeColor=none;fillColor=none;" parent="1" vertex="1">
                    <mxGeometry x="210" y="281" width="120" height="30" as="geometry"/>
                </mxCell>
                <mxCell id="mNl9BlflZ9imCKy_za09-22" value="" style="endArrow=none;html=1;rounded=0;" parent="1" edge="1">
                    <mxGeometry width="50" height="50" relative="1" as="geometry">
                        <mxPoint x="280" y="280" as="sourcePoint"/>
                        <mxPoint x="260" y="280" as="targetPoint"/>
                        <Array as="points"/>
                    </mxGeometry>
                </mxCell>
                <mxCell id="mNl9BlflZ9imCKy_za09-23" value="$$I_{P_{MAX}}$$" style="text;html=1;align=center;verticalAlign=middle;resizable=0;points=[];autosize=1;strokeColor=none;fillColor=none;" parent="1" vertex="1">
                    <mxGeometry x="280" y="180" width="120" height="30" as="geometry"/>
                </mxCell>
                <mxCell id="mNl9BlflZ9imCKy_za09-24" value="$$I_p^*$$" style="text;html=1;align=center;verticalAlign=middle;resizable=0;points=[];autosize=1;strokeColor=none;fillColor=none;" parent="1" vertex="1">
                    <mxGeometry x="410" y="225" width="80" height="30" as="geometry"/>
                </mxCell>
                <mxCell id="mNl9BlflZ9imCKy_za09-25" value="$$V^*_{dc}$$" style="text;html=1;align=center;verticalAlign=middle;resizable=0;points=[];autosize=1;strokeColor=none;fillColor=none;" parent="1" vertex="1">
                    <mxGeometry x="10" y="224.5" width="100" height="30" as="geometry"/>
                </mxCell>
                <mxCell id="mNl9BlflZ9imCKy_za09-26" value="$$V_{dc}$$" style="text;html=1;align=center;verticalAlign=middle;resizable=0;points=[];autosize=1;strokeColor=none;fillColor=none;" parent="1" vertex="1">
                    <mxGeometry x="175" y="280" width="90" height="30" as="geometry"/>
                </mxCell>
                <mxCell id="mNl9BlflZ9imCKy_za09-27" value="-" style="text;html=1;align=center;verticalAlign=middle;resizable=0;points=[];autosize=1;strokeColor=none;fillColor=none;" parent="1" vertex="1">
                    <mxGeometry x="218" y="255" width="30" height="30" as="geometry"/>
                </mxCell>
                <mxCell id="mNl9BlflZ9imCKy_za09-28" value="+" style="text;html=1;align=center;verticalAlign=middle;resizable=0;points=[];autosize=1;strokeColor=none;fillColor=none;" parent="1" vertex="1">
                    <mxGeometry x="170" y="210" width="30" height="30" as="geometry"/>
                </mxCell>
            </root>
        </mxGraphModel>
    </diagram>
</mxfile>